<svg xmlns="http://www.w3.org/2000/svg" viewBox="0 0 512 512">
  <style>
    @media (prefers-color-scheme: dark) {
      .logo { fill: white; }
    }
    @media (prefers-color-scheme: light) {
      .logo { fill: #111111; }
    }
  </style>
  <g class="logo" transform="translate(0,512) scale(0.1,-0.1)">
    <path d="M2940 4706 c-165 -36 -364 -210 -502 -438 l-33 -55 -2 93 c-4 160 -38 267 -106 332 -99 95 -223 22 -327 -192 -55 -113 -75 -180 -90 -304 -11 -88 -9 -133 17 -325 16 -126 13 -175 -15 -200 -9 -9 -58 -36 -109 -62 -96 -48 -187 -121 -224 -181 l-21 -35 -24 67 c-19 56 -67 144 -77 144 -2 0 11 -30 29 -67 18 -38 40 -93 48 -123 l16 -55 -23 30 c-12 16 -35 43 -50 60 -19 21 -16 12 13 -29 35 -53 51 -96 34 -96 -3 0 -19 9 -35 21 -47 33 -144 68 -201 73 -29 2 -42 2 -28 -1 66 -11 141 -38 198 -71 52 -30 62 -40 58 -58 -3 -11 -9 -54 -12 -95 -7 -70 -10 -77 -67 -154 -32 -44 -61 -82 -64 -85 -3 -3 -27 20 -55 50 -36 39 -42 44 -21 15 52 -70 64 -92 57 -108 -5 -14 -13 -12 -58 13 -63 36 -146 65 -207 74 -38 5 -35 3 20 -13 75 -22 211 -89 218 -108 3 -7 3 -19 0 -27 -5 -12 -15 -12 -69 -1 -82 17 -230 28 -203 16 11 -5 38 -10 60 -11 38 0 87 -10 168 -31 48 -13 50 -39 4 -39 -84 0 -264 -65 -300 -108 -6 -9 6 -4 29 10 65 41 196 77 287 78 38 0 15 -29 -35 -45 -52 -17 -173 -79 -182 -93 -2 -4 26 7 62 25 37 17 91 38 120 47 70 20 68 2 -4 -44 -31 -19 -75 -57 -98 -85 -71 -86 -73 -92 -6 -24 63 65 155 128 167 115 4 -3 -5 -19 -20 -34 -36 -38 -79 -136 -83 -191 l-3 -46 8 46 c5 25 18 63 29 85 23 44 98 130 86 99 -22 -62 -34 -126 -33 -175 l2 -55 7 70 c4 39 14 88 24 109 l16 40 33 -47 c17 -26 46 -54 62 -63 17 -9 46 -25 65 -35 24 -13 55 -19 99 -19 48 0 62 -3 58 -13 -3 -7 -17 -51 -33 -98 -28 -85 -29 -114 -24 -379 2 -79 -8 -220 -20 -290 -37 -223 28 -393 235 -609 l98 -101 -6 -65 c-3 -35 -13 -78 -22 -95 -14 -28 -18 -29 -59 -24 -88 12 -176 -68 -176 -161 l0 -42 -72 -6 c-91 -8 -138 -17 -138 -27 0 -4 15 -11 33 -14 45 -8 391 -26 515 -26 106 0 131 -11 65 -30 -48 -13 -68 -26 -55 -34 38 -23 383 -40 553 -27 139 11 163 17 155 37 -4 12 32 14 212 14 258 0 483 14 566 35 34 9 96 19 139 24 43 5 81 12 84 15 9 9 -39 24 -103 31 -144 16 -187 62 -89 94 149 49 239 161 353 441 55 133 65 186 60 295 -6 110 -33 177 -80 201 -77 40 -152 -37 -188 -191 l-16 -70 -8 93 c-19 237 -109 471 -280 731 -84 127 -173 223 -269 289 -131 90 -221 127 -350 143 -78 10 -81 11 -150 72 -137 120 -139 123 -130 154 16 57 6 156 -25 253 -41 129 -43 147 -31 242 23 184 70 257 234 358 304 189 439 357 499 623 38 166 52 207 101 282 73 112 58 149 -67 166 -40 6 -82 14 -93 19 -38 16 -70 18 -125 6z"/>
    <path d="M1916 3536 c-67 -29 -117 -66 -155 -116 -23 -31 -20 -30 25 12 83 76 145 102 236 103 86 0 90 14 7 21 -43 4 -67 -1 -113 -20z"/>
    <path d="M1924 3325 c-10 -8 -14 -14 -9 -14 6 0 19 6 29 14 11 8 15 15 10 15 -6 0 -19 -7 -30 -15z"/>
    <path d="M1791 3285 c-41 -47 -61 -120 -68 -243 l-6 -104 -54 -40 c-80 -61 -58 -56 38 8 136 92 176 107 306 114 91 5 117 9 131 24 16 18 16 18 -3 8 -11 -5 -66 -12 -123 -16 -57 -4 -130 -15 -163 -25 -32 -11 -59 -15 -59 -9 0 5 -5 52 -11 103 -12 103 -4 151 34 193 11 12 18 22 15 22 -3 0 -20 -16 -37 -35z"/>
    <path d="M2138 3304 c-16 -16 -41 -18 -166 -11 -39 2 -70 2 -68 -1 3 -2 -6 -16 -20 -30 -35 -38 -54 -84 -65 -155 -5 -34 -12 -70 -15 -80 -5 -17 -4 -17 33 -2 21 9 69 20 106 25 97 12 137 57 137 153 0 20 5 27 19 27 10 0 29 9 42 21 l24 20 -25 -7 -25 -6 24 26 c26 28 25 46 -1 20z m-134 -57 c11 -8 17 -23 14 -38 -2 -20 -8 -23 -33 -20 -16 1 -38 7 -47 12 -12 6 -25 6 -39 -1 -19 -11 -20 -10 -10 9 25 46 80 64 115 38z"/>
    <path d="M2088 3163 c-3 -41 -10 -69 -23 -83 -10 -11 -13 -20 -7 -20 29 0 59 102 43 145 -6 14 -10 1 -13 -42z"/>
    <path d="M1715 2800 c-87 -23 -52 -26 42 -4 44 10 93 14 138 11 41 -3 60 -1 45 3 -44 14 -153 9 -225 -10z"/>
    <path d="M1660 2763 c0 -24 32 -33 126 -37 90 -4 144 -16 228 -51 13 -6 17 -5 12 3 -17 28 -122 55 -231 59 -85 4 -113 9 -122 21 -7 9 -13 11 -13 5z"/>
    <path d="M1625 2640 c-3 -5 -2 -10 4 -10 5 0 13 5 16 10 3 6 2 10 -4 10 -5 0 -13 -4 -16 -10z"/>
    <path d="M1585 2620 c-3 -5 -1 -10 4 -10 6 0 11 5 11 10 0 6 -2 10 -4 10 -3 0 -8 -4 -11 -10z"/>
    <path d="M1605 2590 c-8 -13 9 -20 24 -11 10 6 9 10 -3 14 -8 3 -18 2 -21 -3z"/>
    <path d="M2515 2510 c10 -11 20 -20 23 -20 3 0 -3 9 -13 20 -10 11 -20 20 -23 20 -3 0 3 -9 13 -20z"/>
    <path d="M2623 2377 c81 -113 135 -253 137 -362 l1 -30 11 25 c5 14 8 55 5 91 -5 82 -52 175 -138 278 -33 39 -62 71 -64 71 -2 0 19 -33 48 -73z"/>
    <path d="M1390 3585 c13 -14 26 -25 28 -25 3 0 -5 11 -18 25 -13 14 -26 25 -28 25 -3 0 5 -11 18 -25z"/>
    <path d="M938 2803 c6 -2 18 -2 25 0 6 3 1 5 -13 5 -14 0 -19 -2 -12 -5z"/>
  </g>
</svg>
